<?xml version="1.0" standalone="no"?>
<!DOCTYPE svg PUBLIC "-//W3C//DTD SVG 20010904//EN"
 "http://www.w3.org/TR/2001/REC-SVG-20010904/DTD/svg10.dtd">
<svg version="1.0" xmlns="http://www.w3.org/2000/svg"
 width="959.000000pt" height="959.000000pt" viewBox="0 0 959.000000 959.000000"
 preserveAspectRatio="xMidYMid meet">
<metadata>
Created by potrace 1.14, written by Peter Selinger 2001-2017
</metadata>
<g transform="translate(0.000000,959.000000) scale(0.100000,-0.100000)"
fill="#000000" stroke="none">
<path d="M0 8120 c0 -973 3 -1470 10 -1470 6 0 10 14 10 30 0 27 3 30 30 30
20 0 30 5 30 15 0 11 11 15 40 15 29 0 40 -4 40 -15 0 -11 11 -15 38 -15 37 0
38 -1 57 -55 10 -30 21 -55 25 -55 4 0 13 18 20 40 l13 40 23 -25 c13 -14 32
-25 44 -25 11 0 20 -4 20 -9 0 -5 36 -12 80 -16 68 -6 80 -10 80 -25 0 -15 -9
-20 -43 -23 l-42 -4 43 -1 c35 -2 42 -5 42 -22 0 -39 35 -60 100 -60 33 0 60
-4 60 -10 0 -6 30 -10 70 -10 40 0 70 4 70 10 0 6 5 10 10 10 6 0 10 -9 10
-20 0 -17 7 -20 40 -20 33 0 40 -3 40 -20 0 -11 -4 -20 -10 -20 -6 0 -10 -33
-10 -80 0 -73 2 -80 20 -80 13 0 22 9 26 25 3 14 10 25 14 25 4 0 11 -11 14
-25 6 -22 11 -25 56 -25 l50 0 0 -50 0 -50 40 0 c38 0 40 -2 40 -30 0 -16 -4
-30 -10 -30 -5 0 -10 -18 -10 -40 0 -22 5 -40 10 -40 6 0 10 18 10 40 l0 40
55 0 c42 0 55 -3 55 -15 0 -8 -7 -15 -16 -15 -11 0 -14 -8 -12 -32 2 -28 7
-33 28 -33 20 0 24 4 22 23 -2 15 2 22 12 22 10 0 16 -9 16 -24 0 -17 7 -26
23 -30 13 -3 36 -17 51 -31 31 -29 29 -29 132 -14 60 8 91 8 136 -2 32 -7 58
-17 58 -21 0 -4 9 -8 21 -8 11 0 18 4 14 9 -3 6 4 7 17 4 13 -3 61 -9 108 -12
53 -4 100 -14 123 -26 l39 -19 19 24 19 25 20 -25 20 -25 0 33 c0 36 -5 35 78
22 9 -1 -1 -30 -10 -30 -9 0 -8 -4 2 -10 12 -8 10 -10 -8 -10 -21 0 -22 -2 -8
-15 15 -16 31 -21 22 -7 -3 4 8 7 25 6 16 -1 32 2 35 7 3 5 -3 9 -13 9 -15 1
-14 4 7 22 l25 20 3 -31 c2 -21 8 -30 15 -27 7 3 20 9 29 12 10 3 20 15 24 26
5 17 13 19 55 16 34 -2 49 1 49 10 0 6 7 12 15 12 16 0 55 34 55 49 0 5 36 12
80 16 76 7 80 8 80 31 0 21 4 24 40 24 33 0 40 -3 40 -20 0 -17 7 -20 40 -20
33 0 40 3 40 20 0 17 7 20 40 20 33 0 40 -3 40 -20 0 -17 7 -20 42 -20 23 0
57 6 76 13 28 10 36 10 39 0 3 -7 11 -13 19 -13 8 0 15 6 16 13 0 6 2 17 2 23
1 6 9 19 19 28 15 15 20 16 34 4 12 -9 15 -9 9 0 -9 15 8 16 37 1 16 -9 22 -9
25 0 2 6 14 11 27 11 13 0 27 5 30 10 4 6 35 10 69 9 70 -2 109 15 100 43 -3
10 -1 18 5 18 6 0 11 -7 11 -15 0 -11 10 -14 40 -13 26 1 40 6 40 15 0 7 -7
13 -15 13 -11 0 -15 11 -15 39 0 30 -4 40 -17 43 -15 3 -11 10 19 41 41 41 48
44 48 23 0 -23 19 -29 26 -9 3 10 11 28 17 41 13 27 -2 42 -40 42 -13 0 -23 5
-23 10 0 6 5 10 10 10 6 0 10 5 10 11 0 7 -10 9 -26 5 -30 -8 -67 1 -59 15 4
5 24 9 46 9 32 0 39 3 39 20 0 11 -4 20 -10 20 -5 0 -10 -4 -10 -10 0 -13 -50
-13 -70 0 -8 5 -15 25 -16 44 -1 46 -8 53 -43 39 -31 -11 -61 -1 -61 21 0 15
30 26 75 26 19 0 35 7 43 20 13 22 72 29 72 8 0 -9 3 -9 12 0 7 7 29 12 50 12
27 0 40 5 48 20 8 14 8 20 0 20 -6 0 -8 4 -5 10 3 6 22 10 41 10 38 0 54 21
34 45 -6 8 -9 23 -5 35 5 16 2 20 -16 20 -18 0 -20 3 -11 12 7 7 12 20 12 29
0 10 13 22 31 28 51 18 60 15 53 -16 -4 -16 -11 -29 -16 -31 -11 -5 -10 -42 2
-42 6 0 10 5 10 10 0 6 12 10 28 10 18 0 38 12 61 35 34 35 66 45 73 23 3 -7
7 -2 11 11 4 17 2 21 -9 17 -25 -10 -114 25 -131 50 -9 14 -25 24 -39 24 -21
0 -24 5 -24 40 0 22 -4 40 -10 40 -5 0 -10 18 -10 40 0 22 5 40 10 40 6 0 10
-18 10 -40 0 -36 3 -40 25 -40 23 0 25 -4 25 -40 0 -29 4 -40 15 -40 11 0 15
11 15 40 0 28 4 40 14 40 8 0 16 -8 19 -17 2 -14 8 -9 21 17 10 20 32 44 49
55 l32 19 -32 4 c-18 2 -33 8 -33 13 0 16 -43 28 -63 17 -14 -7 -24 -5 -36 6
-10 9 -23 16 -30 16 -7 0 -21 5 -32 11 -20 10 -20 11 -3 30 9 10 13 19 8 19
-12 0 37 44 57 52 13 5 16 15 12 42 -4 33 -3 36 21 36 19 0 26 -5 26 -20 0
-43 70 -81 84 -45 3 9 19 15 41 15 33 0 35 -2 35 -32 1 -32 1 -32 16 -13 15
20 11 70 -7 89 -5 6 -9 18 -9 28 0 14 8 18 40 18 32 0 40 -4 40 -18 0 -10 -4
-22 -9 -28 -5 -5 -12 -23 -15 -40 -11 -51 17 -51 69 1 41 41 49 45 95 45 43 0
52 3 59 23 13 32 45 55 83 59 30 3 33 6 36 39 2 27 9 38 23 42 24 6 59 -2 59
-15 0 -18 29 -38 54 -38 22 0 26 4 26 30 0 17 4 30 10 30 5 0 12 11 16 25 8
32 15 32 43 -5 19 -26 28 -30 61 -28 21 1 45 -4 54 -11 13 -11 22 -11 47 -1
29 12 31 16 25 50 -5 33 -3 38 20 48 14 7 41 12 60 12 28 0 38 -6 52 -29 17
-30 49 -51 77 -51 11 0 15 -12 15 -41 0 -36 -2 -40 -20 -34 -14 4 -20 2 -20
-8 0 -15 41 -27 91 -27 23 0 29 -5 29 -21 0 -17 6 -20 38 -19 20 1 56 2 80 1
l42 -1 0 -40 c0 -29 5 -42 21 -50 20 -11 24 -10 85 35 10 7 20 6 34 -2 12 -8
36 -10 65 -6 27 3 69 0 101 -7 45 -11 65 -11 107 -1 77 19 141 43 153 59 8 12
12 11 23 -2 8 -9 22 -16 32 -16 11 0 19 -6 19 -13 0 -14 80 -37 131 -37 19 0
29 -5 29 -15 0 -11 11 -15 40 -15 22 0 40 4 40 9 0 17 66 36 113 33 42 -4 47
-2 47 17 0 18 4 20 28 16 53 -11 132 -39 132 -47 0 -4 9 -8 21 -8 11 0 18 -4
15 -9 -3 -4 24 -9 59 -10 53 -1 65 1 65 14 0 19 11 19 36 0 10 -8 35 -15 54
-15 24 0 39 -6 48 -20 10 -17 16 -18 32 -10 24 13 26 30 5 30 -8 0 -15 5 -15
10 0 6 18 10 40 10 38 0 54 -13 28 -23 -7 -2 -10 -8 -6 -12 5 -5 19 -3 33 3
14 7 27 8 30 2 13 -21 73 -28 126 -13 60 16 329 26 329 12 0 -16 22 -9 41 13
11 11 19 27 19 33 0 15 28 28 41 19 5 -3 8 -2 7 3 -2 4 0 9 5 11 17 5 27 1 27
-13 0 -13 4 -14 21 -5 13 7 44 9 82 5 71 -8 120 6 111 30 -4 10 0 15 10 15 13
0 16 14 17 88 0 48 3 81 6 75 3 -10 10 -10 24 -2 11 6 34 7 51 4 21 -5 33 -3
39 6 8 12 10 12 18 0 7 -11 9 -11 14 0 3 8 6 2 6 -12 1 -23 4 -25 31 -21 25 3
28 7 19 18 -17 21 5 42 41 40 17 -1 30 2 30 7 0 4 9 5 20 2 11 -3 20 -3 20 2
0 9 87 27 188 39 31 4 70 18 97 35 27 17 60 29 79 29 18 0 59 5 92 10 32 6 74
13 92 16 38 6 40 19 10 48 -39 38 -78 85 -78 96 0 5 10 10 23 10 25 -1 60 -24
50 -33 -3 -4 -1 -7 5 -7 7 0 21 -9 32 -20 14 -14 45 -24 98 -32 45 -7 85 -19
96 -30 10 -9 23 -15 28 -12 4 3 8 0 8 -5 0 -6 10 -11 23 -11 l22 -1 -24 -19
c-23 -20 -23 -20 -2 -20 18 0 20 -3 11 -19 -16 -31 -12 -70 10 -88 23 -20 27
-53 5 -53 -11 0 -15 -11 -15 -40 l0 -40 48 0 c44 1 121 29 80 30 -12 0 -18 8
-18 25 0 20 5 25 25 25 15 0 25 -6 25 -14 0 -15 30 -26 76 -26 16 0 34 -4 40
-8 14 -13 88 -32 123 -32 17 0 31 -4 31 -8 0 -10 89 -32 126 -32 l24 0 0 1100
0 1100 -4795 0 -4795 0 0 -1470z m3931 1347 c-1 -12 -15 -9 -19 4 -3 6 1 10 8
8 6 -3 11 -8 11 -12z m4089 -361 c0 -3 -4 -8 -10 -11 -5 -3 -10 -1 -10 4 0 6
5 11 10 11 6 0 10 -2 10 -4z m-7489 -101 c-1 -15 -24 -12 -29 3 -3 9 2 13 12
10 10 -1 17 -7 17 -13z m5919 -85 c0 -5 -4 -10 -10 -10 -5 0 -10 5 -10 10 0 6
5 10 10 10 6 0 10 -4 10 -10z m-2850 -360 c0 -5 -7 -10 -15 -10 -8 0 -15 5
-15 10 0 6 7 10 15 10 8 0 15 -4 15 -10z m-1450 -94 c0 -11 -19 -15 -25 -6 -3
5 1 10 9 10 9 0 16 -2 16 -4z m2190 -190 c0 -3 -4 -8 -10 -11 -5 -3 -10 -1
-10 4 0 6 5 11 10 11 6 0 10 -2 10 -4z m-1060 -152 c0 -9 -5 -14 -12 -12 -18
6 -21 28 -4 28 9 0 16 -7 16 -16z m4771 -147 c13 -17 27 -20 80 -20 51 1 71
-4 97 -22 36 -25 33 -31 -23 -50 -24 -8 -29 -16 -27 -35 1 -14 11 -32 22 -41
10 -9 17 -19 14 -22 -3 -3 -6 -20 -7 -38 -2 -38 -26 -51 -34 -19 -4 14 -8 18
-13 10 -5 -9 -17 -9 -49 1 -22 7 -39 14 -36 17 7 7 -46 33 -55 27 -4 -3 -10 2
-14 10 -3 8 -11 15 -18 14 -10 0 -10 -2 0 -6 6 -2 12 -11 12 -19 0 -11 -18
-14 -80 -14 -48 0 -80 4 -80 10 0 7 -6 7 -19 0 -35 -18 -72 16 -39 36 16 10
-17 22 -64 23 -27 1 -38 -3 -38 -14 0 -8 -4 -15 -10 -15 -5 0 -10 5 -10 11 0
5 -4 8 -9 4 -6 -3 -15 3 -20 13 -12 22 3 42 31 42 10 0 18 4 18 9 0 10 108 24
177 22 44 -1 52 1 58 20 10 29 41 59 64 59 11 0 21 9 25 23 7 21 7 21 19 3 7
-10 19 -28 28 -39z m-4191 -12 c0 -9 -7 -18 -16 -22 -18 -7 -39 11 -30 26 11
17 46 13 46 -4z m-660 -131 c0 -9 -5 -14 -12 -12 -18 6 -21 28 -4 28 9 0 16
-7 16 -16z m-275 -44 c3 -6 -1 -13 -10 -16 -19 -8 -30 0 -20 15 8 14 22 14 30
1z m4922 -157 c16 -6 15 -8 -7 -13 -31 -7 -80 -1 -80 11 0 11 61 12 87 2z
m-87 -248 c0 -8 -4 -15 -10 -15 -5 0 -10 7 -10 15 0 8 5 15 10 15 6 0 10 -7
10 -15z m-1887 -32 c-7 -2 -19 -2 -25 0 -7 3 -2 5 12 5 14 0 19 -2 13 -5z
m1387 -68 c0 -8 -7 -15 -15 -15 -8 0 -15 7 -15 15 0 8 7 15 15 15 8 0 15 -7
15 -15z m-90 -5 c0 -5 -4 -10 -10 -10 -5 0 -10 5 -10 10 0 6 5 10 10 10 6 0
10 -4 10 -10z m-3250 -185 c0 -8 -9 -15 -20 -15 -13 0 -20 -7 -20 -20 0 -13
-7 -20 -20 -20 -16 0 -20 7 -20 35 0 34 1 35 40 35 29 0 40 -4 40 -15z m-3840
-321 c0 -14 -3 -14 -15 -4 -8 7 -15 14 -15 16 0 2 7 4 15 4 8 0 15 -7 15 -16z
m3310 -160 c0 -8 -7 -14 -15 -14 -8 0 -15 9 -15 20 0 13 5 18 15 14 8 -4 15
-12 15 -20z m-2590 -124 c0 -17 -7 -20 -40 -20 -33 0 -40 3 -40 20 0 17 7 20
40 20 33 0 40 -3 40 -20z m1560 -221 c0 -5 -9 -9 -20 -9 -19 0 -26 11 -14 23
8 8 34 -3 34 -14z m-840 -294 c0 -8 -4 -15 -10 -15 -5 0 -10 7 -10 15 0 8 5
15 10 15 6 0 10 -7 10 -15z m960 -50 c0 -11 -11 -15 -40 -15 -29 0 -40 4 -40
15 0 11 11 15 40 15 29 0 40 -4 40 -15z"/>
<path d="M8000 7959 c0 -7 -8 -18 -17 -25 -22 -16 -8 -32 15 -18 19 12 29 54
13 54 -6 0 -11 -5 -11 -11z"/>
<path d="M7849 7858 c-1 -7 -1 -16 0 -20 0 -5 -8 -8 -18 -8 -13 0 -18 -6 -17
-17 2 -14 14 -19 53 -21 55 -4 79 12 41 27 -17 7 -19 10 -5 10 10 1 17 9 17
21 0 16 -7 20 -35 20 -21 0 -35 -5 -36 -12z"/>
<path d="M8158 7547 c-4 -22 -2 -24 21 -17 31 8 34 34 5 38 -16 2 -23 -3 -26
-21z"/>
<path d="M8240 7540 c0 -5 9 -10 21 -10 11 0 17 5 14 10 -3 6 -13 10 -21 10
-8 0 -14 -4 -14 -10z"/>
<path d="M7880 7519 c0 -5 5 -7 10 -4 6 4 10 -12 10 -39 0 -25 4 -46 9 -46 9
0 19 70 13 89 -5 14 -42 14 -42 0z"/>
<path d="M8078 7525 c-2 -3 -3 -18 0 -35 4 -25 9 -30 32 -30 16 0 31 -6 34
-12 5 -10 7 -10 12 0 8 18 35 15 50 -5 9 -12 13 -14 14 -5 0 7 5 10 10 7 6 -3
10 3 10 14 0 14 -8 22 -27 27 -16 3 -44 14 -64 25 -36 19 -61 24 -71 14z"/>
<path d="M5080 7499 c0 -5 5 -7 10 -4 6 3 10 8 10 11 0 2 -4 4 -10 4 -5 0 -10
-5 -10 -11z"/>
<path d="M8052 7480 c-7 -11 -8 -20 -3 -20 9 0 24 30 18 36 -1 2 -8 -6 -15
-16z"/>
<path d="M8000 7457 c0 -25 3 -27 40 -27 29 0 40 4 40 15 0 12 -7 14 -27 9
-19 -5 -30 -2 -40 11 -12 18 -13 17 -13 -8z"/>
<path d="M7870 7415 c0 -8 5 -15 10 -15 6 0 10 7 10 15 0 8 -4 15 -10 15 -5 0
-10 -7 -10 -15z"/>
<path d="M9140 7420 c0 -5 7 -10 15 -10 8 0 15 5 15 10 0 6 -7 10 -15 10 -8 0
-15 -4 -15 -10z"/>
<path d="M8137 7383 c-13 -12 -7 -23 11 -22 10 0 12 3 4 6 -6 2 -10 9 -6 14 6
10 0 12 -9 2z"/>
<path d="M8482 7278 c-7 -7 -43 -11 -93 -11 -76 1 -84 -1 -101 -23 -11 -13
-25 -24 -33 -24 -7 0 -15 -7 -19 -15 -3 -9 0 -15 10 -15 9 0 27 -9 41 -20 16
-12 20 -20 11 -20 -8 0 -19 5 -25 11 -7 7 -22 7 -51 -2 -39 -11 -40 -13 -37
-50 4 -42 -18 -56 -30 -20 -7 22 -75 50 -75 31 0 -5 6 -11 13 -14 10 -5 10 -7
0 -12 -7 -3 -13 -12 -13 -19 0 -15 -36 -31 -59 -26 -8 1 -17 -2 -20 -8 -5 -8
-17 -7 -41 2 -26 9 -34 9 -37 0 -3 -7 -13 -13 -23 -13 -10 0 -20 -5 -22 -12
-2 -6 -30 -13 -61 -16 -66 -5 -74 -17 -17 -27 l40 -7 0 -52 0 -51 123 -2 c67
-1 139 -5 160 -8 24 -5 37 -3 37 4 0 7 28 11 80 11 47 0 80 -4 80 -10 0 -5 11
-10 24 -10 13 0 29 -6 35 -14 15 -18 58 -9 75 16 13 19 15 19 39 3 19 -12 30
-14 45 -6 11 6 22 7 26 4 3 -3 6 -1 6 5 0 7 14 12 30 12 17 0 30 -4 30 -9 0
-4 19 -5 42 -1 29 6 45 4 50 -3 5 -8 29 -8 90 1 46 7 98 12 116 12 31 0 32 -2
32 -40 l0 -40 -40 0 c-22 0 -40 -4 -40 -9 0 -5 18 -11 40 -13 28 -2 40 0 40 9
0 7 5 13 11 13 8 0 10 15 7 45 -4 31 -1 48 9 56 22 19 37 -5 34 -56 -1 -26 2
-45 9 -45 5 0 10 -18 10 -40 0 -39 1 -40 35 -40 19 0 35 5 35 10 0 6 27 10 60
10 57 0 79 13 45 26 -8 4 -15 15 -15 25 0 15 7 19 40 19 29 0 40 4 40 15 0 11
-11 15 -40 15 -46 0 -53 15 -12 24 15 4 35 9 45 12 14 5 17 -1 17 -35 0 -23 5
-41 10 -41 6 0 10 18 10 40 0 36 3 40 24 40 13 0 26 6 29 13 2 8 24 11 65 10
43 -1 62 2 62 11 0 16 39 48 50 41 4 -3 16 -2 27 2 14 6 9 9 -22 15 -101 18
-105 20 -105 40 0 15 5 18 20 13 12 -4 31 0 43 8 12 8 37 18 55 21 27 6 32 12
32 36 0 27 -2 28 -62 34 -35 4 -91 9 -124 11 -41 3 -76 13 -105 30 -28 16 -60
25 -86 25 -34 0 -43 4 -44 18 -1 9 -2 24 -3 32 0 8 -10 15 -21 15 -11 0 -23 4
-26 9 -4 4 -27 10 -52 13 -42 5 -46 4 -49 -18 -2 -19 -9 -24 -30 -24 -16 1
-28 -3 -28 -7 0 -13 -46 -9 -86 9 -24 10 -61 16 -98 14 -48 -1 -57 1 -53 14 4
9 -1 19 -13 25 -27 14 -213 13 -228 -2z"/>
<path d="M7760 6911 c0 -39 1 -40 35 -38 37 2 50 17 15 17 -16 0 -20 7 -20 30
0 20 -5 30 -15 30 -11 0 -15 -11 -15 -39z"/>
<path d="M4071 6854 c0 -11 3 -14 6 -6 3 7 2 16 -1 19 -3 4 -6 -2 -5 -13z"/>
<path d="M8457 6800 c-16 -19 -16 -20 1 -20 11 0 18 8 18 20 0 11 -1 20 -1 20
0 0 -8 -9 -18 -20z"/>
<path d="M9258 6713 c7 -3 16 -2 19 1 4 3 -2 6 -13 5 -11 0 -14 -3 -6 -6z"/>
<path d="M9378 6713 c6 -2 18 -2 25 0 6 3 1 5 -13 5 -14 0 -19 -2 -12 -5z"/>
<path d="M8595 6700 c3 -5 10 -10 16 -10 5 0 9 5 9 10 0 6 -7 10 -16 10 -8 0
-12 -4 -9 -10z"/>
<path d="M260 6466 c0 -2 7 -6 15 -10 8 -3 15 -1 15 4 0 6 -7 10 -15 10 -8 0
-15 -2 -15 -4z"/>
<path d="M1120 6030 c0 -22 5 -40 10 -40 6 0 10 18 10 40 0 22 -4 40 -10 40
-5 0 -10 -18 -10 -40z"/>
<path d="M2640 5940 c0 -5 5 -10 11 -10 5 0 7 5 4 10 -3 6 -8 10 -11 10 -2 0
-4 -4 -4 -10z"/>
<path d="M2705 5940 c-3 -5 -1 -10 4 -10 6 0 11 5 11 10 0 6 -2 10 -4 10 -3 0
-8 -4 -11 -10z"/>
<path d="M2550 5895 c0 -8 2 -15 4 -15 2 0 6 7 10 15 3 8 1 15 -4 15 -6 0 -10
-7 -10 -15z"/>
<path d="M1888 5863 c7 -3 16 -2 19 1 4 3 -2 6 -13 5 -11 0 -14 -3 -6 -6z"/>
<path d="M3879 2954 c-96 -25 -143 -65 -185 -159 -23 -53 -26 -70 -22 -137 3
-54 10 -83 21 -96 23 -26 21 -37 -10 -60 -23 -17 -26 -26 -25 -70 1 -54 23
-109 48 -119 26 -10 14 -38 -31 -72 -52 -38 -55 -55 -25 -132 20 -49 20 -54 5
-113 -45 -174 -83 -427 -94 -626 -12 -203 -3 -520 14 -544 7 -9 36 -22 65 -29
68 -16 82 -36 69 -101 -7 -38 -6 -54 5 -71 26 -40 47 -55 76 -55 40 0 49 -21
60 -142 11 -115 9 -173 -7 -189 -18 -18 -87 -38 -103 -29 -13 7 -69 -8 -112
-30 -17 -10 -95 -7 -141 5 -16 4 -40 2 -57 -5 -23 -9 -33 -10 -44 -1 -10 9
-31 9 -79 1 -36 -6 -72 -13 -80 -16 -7 -2 -26 0 -41 6 -19 7 -40 7 -66 0 -21
-6 -60 -10 -87 -10 -26 0 -55 0 -63 0 -104 -6 -270 -12 -290 -11 -100 3 -226
2 -283 -3 -55 -5 -69 -3 -73 9 -8 20 -60 19 -120 -1 -42 -14 -47 -14 -58 2
-12 15 -16 16 -62 1 -27 -8 -71 -20 -99 -27 -27 -7 -66 -18 -85 -25 -23 -8
-43 -10 -59 -4 -28 11 -220 4 -336 -12 -44 -6 -118 -12 -165 -14 -47 -2 -97
-6 -112 -9 -15 -3 -30 -1 -33 4 -3 5 -18 5 -35 0 -19 -5 -42 -5 -60 2 -21 7
-39 7 -61 -1 -31 -10 -31 -10 -24 17 5 22 4 25 -6 15 -7 -7 -36 -13 -64 -13
-28 0 -74 -6 -102 -13 -31 -8 -56 -10 -61 -5 -5 5 -50 5 -108 -1 -74 -7 -118
-7 -174 3 -51 9 -84 10 -103 4 -20 -8 -36 -6 -62 6 -25 12 -48 15 -90 10 -43
-5 -59 -4 -66 7 -7 12 -13 12 -41 0 -37 -16 -94 -19 -120 -7 -16 7 -18 2 -18
-43 l0 -51 4795 0 4795 0 0 86 c0 79 -2 85 -17 78 -10 -5 -49 -7 -88 -6 -38 1
-91 -1 -117 -6 -31 -6 -62 -6 -88 1 -30 8 -46 8 -59 0 -11 -7 -23 -8 -35 -1
-12 7 -39 5 -87 -7 -50 -13 -74 -14 -81 -7 -8 8 -21 7 -46 -3 -43 -19 -42 -19
-42 5 0 20 -14 27 -24 11 -8 -12 -81 -25 -159 -26 -61 -2 -67 0 -61 17 7 22
-5 23 -51 1 -34 -16 -35 -16 -59 6 l-25 23 -33 -20 c-31 -19 -74 -25 -155 -23
-23 1 -33 6 -33 17 0 11 -5 14 -17 9 -52 -21 -62 -15 -124 69 -30 40 -34 68
-23 138 5 28 12 38 28 40 12 2 27 16 36 35 10 21 21 31 35 30 23 -2 23 -5 12
288 -12 346 -53 588 -122 730 -39 78 -154 207 -220 247 -86 52 -308 127 -375
128 -20 0 -148 42 -245 80 -61 25 -100 30 -214 30 -193 0 -362 -17 -496 -51
-66 -17 -150 -37 -188 -45 -37 -7 -80 -20 -97 -29 -55 -28 -63 -23 -146 103
-43 64 -82 122 -86 127 -5 6 -18 23 -29 38 -47 63 -45 -10 7 -228 30 -124 29
-125 -86 -111 -62 7 -89 7 -113 -3 -68 -28 -73 -27 -137 35 -49 46 -64 68 -76
112 -20 67 -36 57 -42 -27 -5 -67 8 -115 50 -182 15 -25 28 -52 28 -58 0 -7
12 -28 26 -46 28 -38 28 -39 -12 -192 -9 -34 -14 -110 -14 -227 l0 -176 41
-21 c34 -17 50 -19 88 -13 25 4 60 7 78 5 21 -1 43 5 62 20 24 18 33 20 45 10
11 -9 17 -8 30 4 8 9 13 21 11 28 -6 14 11 44 20 35 3 -3 8 -26 11 -50 3 -39
-1 -51 -29 -88 -64 -85 -61 -80 -45 -80 14 0 155 111 170 134 12 18 16 3 28
-104 17 -161 19 -172 40 -165 27 9 52 -30 38 -61 -8 -18 -7 -29 4 -46 8 -13
18 -40 22 -60 4 -23 20 -50 40 -70 21 -21 46 -64 66 -115 28 -70 32 -92 28
-145 -4 -55 -8 -64 -39 -90 -27 -22 -43 -28 -79 -27 -25 0 -60 -3 -78 -6 -20
-5 -38 -3 -47 5 -10 8 -30 10 -61 5 -36 -5 -50 -3 -64 10 -22 20 -86 15 -134
-10 -37 -20 -46 -19 -46 4 0 31 -15 33 -60 10 -39 -21 -43 -21 -78 -5 -39 17
-94 16 -128 -2 -22 -11 -55 0 -35 12 6 4 11 18 11 31 0 24 0 24 -37 9 -21 -9
-47 -24 -58 -35 -12 -10 -36 -22 -54 -25 -27 -6 -33 -4 -38 15 -5 19 -10 21
-57 15 -28 -3 -63 -10 -77 -16 -21 -7 -35 -6 -60 7 -41 22 -75 26 -119 15
-120 -29 -152 -33 -171 -22 -10 7 -37 12 -58 12 -22 0 -43 4 -46 10 -3 5 -34
10 -68 9 -34 0 -76 4 -94 9 -17 6 -34 8 -37 5 -9 -10 -66 19 -66 33 0 7 -11
24 -24 38 -26 29 -80 36 -90 11 -3 -8 -15 -15 -26 -15 -12 0 -18 -4 -15 -10 3
-5 -1 -10 -11 -10 -9 0 -22 -6 -28 -14 -12 -17 -81 -22 -246 -18 l-105 2 -19
35 c-18 32 -29 159 -27 299 1 53 27 67 134 73 134 8 147 1 186 -95 17 -43 31
-85 31 -94 0 -13 8 -18 26 -18 17 0 28 -6 31 -20 4 -15 12 -19 34 -16 17 2 32
6 35 8 4 5 -1 41 -22 159 -5 30 -3 38 18 51 14 9 39 30 56 47 22 22 39 31 59
29 44 -3 55 9 51 55 l-3 41 59 21 c33 11 61 25 63 31 2 6 -21 37 -52 69 -30
32 -55 63 -55 70 0 6 22 22 49 35 28 12 71 42 98 65 l48 43 -18 35 c-20 37
-51 70 -200 216 -54 52 -97 101 -97 108 0 24 20 53 37 53 25 0 142 -72 148
-92 4 -9 21 -34 40 -55 19 -21 35 -41 35 -45 0 -12 58 -10 65 2 3 6 17 10 29
10 19 0 25 -7 31 -37 4 -21 15 -55 25 -75 24 -49 169 -248 181 -248 12 0 12
17 0 24 -11 7 -151 239 -168 279 -7 16 -13 55 -13 86 0 90 -53 149 -150 165
-26 5 -56 26 -116 84 -45 42 -94 95 -109 117 -16 22 -50 63 -77 90 -35 37 -53
67 -69 114 -11 35 -46 116 -77 180 -46 96 -68 128 -126 188 -45 45 -82 74
-101 78 -53 12 -55 14 -55 49 0 29 5 37 32 50 30 16 33 15 57 -8 49 -46 159
-94 230 -101 36 -3 81 -8 99 -11 45 -7 42 15 -8 70 -47 51 -186 126 -234 126
l-33 0 1 103 c1 100 0 105 -37 180 -43 87 -81 120 -163 141 -38 9 -59 9 -95 0z
m3821 -2415 c0 -27 17 -32 30 -9 6 11 14 20 18 20 4 0 20 -28 36 -61 27 -58
67 -109 86 -109 4 0 25 -35 46 -77 21 -43 45 -86 52 -95 20 -24 8 -48 -24 -48
-15 0 -44 -5 -64 -11 -21 -7 -50 -9 -64 -5 -21 5 -26 12 -26 37 0 17 -6 32
-15 35 -8 4 -15 10 -15 15 0 5 -11 32 -24 61 -75 168 -94 235 -76 267 9 18 14
20 26 10 8 -6 14 -20 14 -30z m-756 -15 l24 -27 128 9 c71 4 135 6 142 5 8 -1
24 5 37 13 12 8 57 18 99 22 l77 7 36 -34 c19 -19 44 -54 55 -79 27 -59 89
-120 116 -114 15 4 22 -1 30 -25 6 -17 16 -31 21 -31 6 0 11 -7 11 -15 0 -8
-7 -15 -15 -15 -8 0 -15 -4 -15 -10 0 -5 4 -10 10 -10 10 0 -19 -60 -35 -72
-5 -5 -22 -5 -37 -2 -17 3 -45 -3 -75 -16 -33 -14 -58 -19 -80 -15 -18 3 -42
1 -53 -5 -16 -9 -25 -8 -35 0 -9 7 -26 9 -45 5 -28 -6 -30 -4 -30 20 l0 26
-26 -20 c-33 -26 -42 -26 -46 0 -3 20 -3 20 -28 -3 -16 -15 -43 -25 -85 -31
-136 -17 -137 -17 -142 3 -3 13 -14 20 -28 20 -32 0 -42 16 -55 90 -20 116
-27 144 -50 221 -28 93 -24 109 29 109 31 0 46 -6 65 -26z m-332 -86 c38 -45
47 -65 62 -133 20 -93 32 -141 42 -173 6 -22 5 -22 -33 -16 -29 4 -42 2 -52
-10 -7 -9 -17 -16 -22 -16 -19 0 -47 39 -53 74 -8 41 -15 44 -41 16 -23 -26
-39 -26 -32 0 3 11 1 23 -5 26 -6 4 -5 10 3 15 11 7 10 9 -4 9 -15 0 -17 10
-16 75 1 47 5 73 11 69 6 -4 8 2 3 15 -5 15 -2 21 10 21 8 0 18 6 20 13 21 58
26 67 44 67 10 0 38 -23 63 -52z m-2699 -135 c-7 -2 -19 -2 -25 0 -7 3 -2 5
12 5 14 0 19 -2 13 -5z"/>
<path d="M5765 789 c-37 -9 -77 -19 -134 -35 -44 -12 -7 -25 42 -14 110 23
134 30 172 44 l40 15 -40 -1 c-22 0 -58 -4 -80 -9z"/>
<path d="M5394 718 c22 -13 97 -12 141 1 23 7 7 9 -65 10 -75 0 -91 -2 -76
-11z"/>
<path d="M4423 313 c4 -6 1 -14 -5 -16 -7 -3 7 -5 32 -5 26 0 34 3 20 5 -14 3
-31 10 -39 16 -11 9 -13 9 -8 0z"/>
<path d="M4375 267 c-4 -10 -5 -21 -1 -24 10 -10 18 4 13 24 -4 17 -4 17 -12
0z"/>
<path d="M4408 263 c6 -2 18 -2 25 0 6 3 1 5 -13 5 -14 0 -19 -2 -12 -5z"/>
</g>
</svg>
